<svg xmlns="http://www.w3.org/2000/svg" viewBox="0 0 1200 675" role="img" aria-hidden="true">
  <defs>
    <radialGradient id="g" cx="25%" cy="18%" r="75%"><stop offset="0" stop-color="#7c3aed"/><stop offset="0.45" stop-color="#31145f"/><stop offset="1" stop-color="#050816"/></radialGradient>
    <linearGradient id="gold" x1="0" x2="1"><stop offset="0" stop-color="#fbbf24"/><stop offset="1" stop-color="#f59e0b"/></linearGradient>
    <filter id="glow"><feGaussianBlur stdDeviation="8" result="b"/><feMerge><feMergeNode in="b"/><feMergeNode in="SourceGraphic"/></feMerge></filter>
  </defs>
  <rect width="1200" height="675" fill="url(#g)"/>
  <circle cx="180" cy="100" r="170" fill="#a855f7" opacity=".16"/>
  <circle cx="1000" cy="580" r="230" fill="#0ea5e9" opacity=".09"/>
<g fill="none" stroke="#e5e7eb" stroke-width="28" opacity=".92"><circle cx="442" cy="320" r="122"/><circle cx="585" cy="320" r="122"/><circle cx="728" cy="320" r="122"/></g><g fill="none" stroke="url(#gold)" stroke-width="10" stroke-linecap="round"><path d="M260 500 C430 420 758 420 940 502"/><path d="M325 185 C468 100 740 100 880 188" opacity=".65"/></g><path d="M312 450 l470 -220" stroke="#f8fafc" stroke-width="16" stroke-linecap="round"/><path d="M790 225 l42 -18 l-18 42" fill="#f8fafc"/><text x="72" y="604" font-family="Inter,Arial" font-size="44" fill="#fff" font-weight="700">Classic Magic</text>
  <g fill="#fff" opacity=".85"> <circle cx="964" cy="118" r="5"/><circle cx="1014" cy="156" r="3"/><circle cx="1070" cy="102" r="4"/><circle cx="145" cy="535" r="4"/><circle cx="205" cy="492" r="3"/></g>
</svg>
