<svg xmlns="http://www.w3.org/2000/svg" viewBox="0 0 1200 675" role="img" aria-label="Neutral magic themed image">
  <defs>
    <radialGradient id="bg" cx="25%" cy="15%" r="85%">
      <stop offset="0" stop-color="#4f46e5" stop-opacity="0.96"/>
      <stop offset="0.48" stop-color="#2a1458"/>
      <stop offset="1" stop-color="#050816"/>
    </radialGradient>
    <linearGradient id="gold" x1="0" x2="1">
      <stop offset="0" stop-color="#f59e0b"/>
      <stop offset="0.5" stop-color="#fde68a"/>
      <stop offset="1" stop-color="#f59e0b"/>
    </linearGradient>
    <filter id="soft" x="-30%" y="-30%" width="160%" height="160%">
      <feDropShadow dx="0" dy="18" stdDeviation="22" flood-color="#000" flood-opacity="0.45"/>
    </filter>
  </defs>
  <rect width="1200" height="675" fill="url(#bg)"/>
  <circle cx="170" cy="110" r="160" fill="#fff" opacity="0.055"/>
  <circle cx="1020" cy="125" r="120" fill="#fff" opacity="0.045"/>
  <path d="M130 555 C330 430 830 430 1070 555" fill="none" stroke="url(#gold)" stroke-width="10" opacity="0.55"/>
  <g filter="url(#soft)" transform="translate(420 150) rotate(-10)">
    <rect x="0" y="0" width="210" height="310" rx="18" fill="#f8fafc"/>
    <rect x="20" y="20" width="170" height="270" rx="13" fill="none" stroke="#7c3aed" stroke-width="8" opacity="0.9"/>
    <path d="M105 95 C65 55 10 115 105 205 C200 115 145 55 105 95z" fill="#6366f1"/>
  </g>
  <g filter="url(#soft)" transform="translate(570 130) rotate(11)">
    <rect x="0" y="0" width="210" height="310" rx="18" fill="#fff7ed"/>
    <rect x="20" y="20" width="170" height="270" rx="13" fill="none" stroke="#f59e0b" stroke-width="8" opacity="0.9"/>
    <path d="M105 68 l36 74 82 12 -59 58 14 81 -73 -38 -73 38 14 -81 -59 -58 82 -12z" fill="#6366f1"/>
  </g>
  <g fill="#fff7d6" opacity="0.9">
    <path d="M945 180 l12 36 38 0 -31 22 12 36 -31 -22 -31 22 12 -36 -31 -22 38 0z"/>
    <path d="M245 210 l8 24 25 0 -20 15 8 24 -21 -15 -20 15 8 -24 -20 -15 25 0z" opacity="0.7"/>
    <circle cx="335" cy="118" r="5"/><circle cx="825" cy="95" r="6"/><circle cx="995" cy="310" r="4"/><circle cx="190" cy="410" r="5"/>
  </g>
</svg>
