<svg xmlns="http://www.w3.org/2000/svg" viewBox="0 0 1200 675" role="img" aria-hidden="true">
  <defs>
    <radialGradient id="g" cx="25%" cy="18%" r="75%"><stop offset="0" stop-color="#7c3aed"/><stop offset="0.45" stop-color="#31145f"/><stop offset="1" stop-color="#050816"/></radialGradient>
    <linearGradient id="gold" x1="0" x2="1"><stop offset="0" stop-color="#fbbf24"/><stop offset="1" stop-color="#f59e0b"/></linearGradient>
    <filter id="glow"><feGaussianBlur stdDeviation="8" result="b"/><feMerge><feMergeNode in="b"/><feMergeNode in="SourceGraphic"/></feMerge></filter>
  </defs>
  <rect width="1200" height="675" fill="url(#g)"/>
  <circle cx="180" cy="100" r="170" fill="#a855f7" opacity=".16"/>
  <circle cx="1000" cy="580" r="230" fill="#0ea5e9" opacity=".09"/>
<path d="M290 145 H820 C880 145 930 195 930 255 V500 H290Z" fill="#f8fafc" opacity=".95"/><path d="M250 200 H345 V500 H250Z" fill="#cbd5e1"/><rect x="370" y="205" width="320" height="24" fill="#111827" opacity=".72"/><rect x="370" y="260" width="480" height="12" fill="#334155" opacity=".45"/><rect x="370" y="295" width="480" height="12" fill="#334155" opacity=".32"/><rect x="370" y="330" width="240" height="12" fill="#334155" opacity=".32"/><path d="M690 380 C735 330 790 330 835 380" fill="none" stroke="#7c2d12" stroke-width="12"/><path d="M690 430 C735 480 790 480 835 430" fill="none" stroke="#7c2d12" stroke-width="12"/><path d="M350 118 C485 70 710 70 875 118" fill="none" stroke="url(#gold)" stroke-width="8"/><text x="72" y="604" font-family="Inter,Arial" font-size="44" fill="#fff" font-weight="700">Magic News</text>
  <g fill="#fff" opacity=".85"> <circle cx="964" cy="118" r="5"/><circle cx="1014" cy="156" r="3"/><circle cx="1070" cy="102" r="4"/><circle cx="145" cy="535" r="4"/><circle cx="205" cy="492" r="3"/></g>
</svg>
