<svg xmlns="http://www.w3.org/2000/svg" viewBox="0 0 1200 675" role="img" aria-hidden="true">
  <defs>
    <radialGradient id="g" cx="25%" cy="18%" r="75%"><stop offset="0" stop-color="#7c3aed"/><stop offset="0.45" stop-color="#31145f"/><stop offset="1" stop-color="#050816"/></radialGradient>
    <linearGradient id="gold" x1="0" x2="1"><stop offset="0" stop-color="#fbbf24"/><stop offset="1" stop-color="#f59e0b"/></linearGradient>
    <filter id="glow"><feGaussianBlur stdDeviation="8" result="b"/><feMerge><feMergeNode in="b"/><feMergeNode in="SourceGraphic"/></feMerge></filter>
  </defs>
  <rect width="1200" height="675" fill="url(#g)"/>
  <circle cx="180" cy="100" r="170" fill="#a855f7" opacity=".16"/>
  <circle cx="1000" cy="580" r="230" fill="#0ea5e9" opacity=".09"/>
<g transform="translate(300 135)"><rect x="0" y="0" width="600" height="390" rx="28" fill="#f8fafc" opacity=".95"/><rect x="45" y="55" width="230" height="18" fill="#111827" opacity=".72"/><rect x="45" y="95" width="490" height="10" fill="#334155" opacity=".45"/><rect x="45" y="125" width="490" height="10" fill="#334155" opacity=".32"/><rect x="45" y="155" width="260" height="10" fill="#334155" opacity=".32"/><rect x="345" y="205" width="190" height="120" rx="12" fill="#7c3aed" opacity=".35"/><path d="M96 295 C150 230 210 230 264 295" fill="none" stroke="#7c2d12" stroke-width="12"/><rect x="45" y="205" width="250" height="10" fill="#334155" opacity=".36"/><rect x="45" y="235" width="250" height="10" fill="#334155" opacity=".28"/></g><path d="M345 475 C510 400 710 400 856 474" fill="none" stroke="url(#gold)" stroke-width="8"/><text x="72" y="604" font-family="Inter,Arial" font-size="44" fill="#fff" font-weight="700">Magic Publications</text>
  <g fill="#fff" opacity=".85"> <circle cx="964" cy="118" r="5"/><circle cx="1014" cy="156" r="3"/><circle cx="1070" cy="102" r="4"/><circle cx="145" cy="535" r="4"/><circle cx="205" cy="492" r="3"/></g>
</svg>
