<svg xmlns="http://www.w3.org/2000/svg" viewBox="0 0 1200 675" role="img" aria-label="Neutral magic themed image">
  <defs>
    <radialGradient id="bg" cx="25%" cy="15%" r="85%">
      <stop offset="0" stop-color="#a855f7" stop-opacity="0.96"/>
      <stop offset="0.48" stop-color="#2a1458"/>
      <stop offset="1" stop-color="#050816"/>
    </radialGradient>
    <linearGradient id="gold" x1="0" x2="1">
      <stop offset="0" stop-color="#f59e0b"/>
      <stop offset="0.5" stop-color="#fde68a"/>
      <stop offset="1" stop-color="#f59e0b"/>
    </linearGradient>
    <filter id="soft" x="-30%" y="-30%" width="160%" height="160%">
      <feDropShadow dx="0" dy="18" stdDeviation="22" flood-color="#000" flood-opacity="0.45"/>
    </filter>
  </defs>
  <rect width="1200" height="675" fill="url(#bg)"/>
  <circle cx="170" cy="110" r="160" fill="#fff" opacity="0.055"/>
  <circle cx="1020" cy="125" r="120" fill="#fff" opacity="0.045"/>
  <path d="M130 555 C330 430 830 430 1070 555" fill="none" stroke="url(#gold)" stroke-width="10" opacity="0.55"/>
  <g filter="url(#soft)">
    <rect x="430" y="350" width="390" height="34" rx="17" fill="#0f172a" transform="rotate(-28 625 367)"/>
    <rect x="430" y="350" width="95" height="34" rx="17" fill="#f8fafc" transform="rotate(-28 625 367)"/>
    <path d="M760 185 l20 60 63 0 -51 37 20 60 -52 -37 -51 37 20 -60 -51 -37 63 0z" fill="url(#gold)"/>
    <circle cx="835" cy="225" r="11" fill="#fff7d6"/><circle cx="710" cy="245" r="8" fill="#fff7d6"/><circle cx="805" cy="355" r="6" fill="#fff7d6"/>
  </g>
  <g fill="#fff7d6" opacity="0.9">
    <path d="M945 180 l12 36 38 0 -31 22 12 36 -31 -22 -31 22 12 -36 -31 -22 38 0z"/>
    <path d="M245 210 l8 24 25 0 -20 15 8 24 -21 -15 -20 15 8 -24 -20 -15 25 0z" opacity="0.7"/>
    <circle cx="335" cy="118" r="5"/><circle cx="825" cy="95" r="6"/><circle cx="995" cy="310" r="4"/><circle cx="190" cy="410" r="5"/>
  </g>
</svg>
