<svg xmlns="http://www.w3.org/2000/svg" viewBox="0 0 1200 675" role="img" aria-hidden="true">
  <defs>
    <radialGradient id="g" cx="25%" cy="18%" r="75%"><stop offset="0" stop-color="#7c3aed"/><stop offset="0.45" stop-color="#31145f"/><stop offset="1" stop-color="#050816"/></radialGradient>
    <linearGradient id="gold" x1="0" x2="1"><stop offset="0" stop-color="#fbbf24"/><stop offset="1" stop-color="#f59e0b"/></linearGradient>
    <filter id="glow"><feGaussianBlur stdDeviation="8" result="b"/><feMerge><feMergeNode in="b"/><feMergeNode in="SourceGraphic"/></feMerge></filter>
  </defs>
  <rect width="1200" height="675" fill="url(#g)"/>
  <circle cx="180" cy="100" r="170" fill="#a855f7" opacity=".16"/>
  <circle cx="1000" cy="580" r="230" fill="#0ea5e9" opacity=".09"/>
<g transform="translate(420 120)"><path d="M175 0 L315 300 H35Z" fill="#312e81" stroke="#a78bfa" stroke-width="12"/><path d="M122 120 L188 55 L252 122" fill="none" stroke="#fbbf24" stroke-width="13" stroke-linecap="round"/><rect x="52" y="285" width="245" height="120" rx="38" fill="#111827" stroke="#e5e7eb" stroke-width="12"/><path d="M175 295 V160" stroke="#f8fafc" stroke-width="10"/><path d="M135 210 h80" stroke="#fbbf24" stroke-width="8" stroke-linecap="round"/></g><path d="M260 480 C415 390 780 390 940 480" fill="none" stroke="#a78bfa" stroke-width="10" opacity=".75"/><text x="72" y="604" font-family="Inter,Arial" font-size="44" fill="#fff" font-weight="700">Magic AI Wizard</text>
  <g fill="#fff" opacity=".85"> <circle cx="964" cy="118" r="5"/><circle cx="1014" cy="156" r="3"/><circle cx="1070" cy="102" r="4"/><circle cx="145" cy="535" r="4"/><circle cx="205" cy="492" r="3"/></g>
</svg>
